<svg width="778" height="2629" viewBox="0 0 778 2629" fill="none" xmlns="http://www.w3.org/2000/svg">
<path d="M0 1314.01C206.338 1314.01 404.226 1244.79 550.129 1121.58C696.032 998.368 778 831.256 778 657.007C778 482.758 696.032 315.645 550.129 192.433C404.226 69.2201 206.339 -0.00012207 0.000235854 -0.00012207L7.86181e-05 657.007L0 1314.01Z" fill="black"/>
<path d="M0 974.632C98.3865 974.632 192.743 941.627 262.313 882.876C331.883 824.126 370.967 744.443 370.967 661.358C370.967 578.272 331.883 498.589 262.313 439.839C192.743 381.089 98.3866 348.083 0.00011246 348.083L3.74868e-05 661.358L0 974.632Z" fill="#1E5DBC"/>
<path d="M0 2628.03C206.338 2628.03 404.226 2558.81 550.129 2435.59C696.032 2312.38 778 2145.27 778 1971.02C778 1796.77 696.032 1629.66 550.129 1506.45C404.226 1383.23 206.339 1314.01 0.000235854 1314.01L7.86181e-05 1971.02L0 2628.03Z" fill="#1E5DBC"/>
</svg>
