<svg width="38" height="25" viewBox="0 0 38 25" fill="none" xmlns="http://www.w3.org/2000/svg">
<path d="M37.47 3.60002V20.91C37.12 22.71 35.82 23.93 33.96 24.08H4.10995C2.18995 23.96 0.839961 22.79 0.459961 20.91V3.60002C0.739961 2.09002 1.77995 0.910013 3.27995 0.530013C13.69 0.340013 24.18 0.370024 34.6 0.510024C36.02 0.800024 37.3 2.15001 37.47 3.59001V3.60002ZM3.91995 1.89003C3.63995 1.96003 3.22995 2.01003 2.99995 2.20003C2.91995 2.27003 2.89995 2.27001 2.99995 2.34001L18.72 15.58L19.0099 15.72L35.02 2.27C34.69 1.99 34.24 1.93001 33.83 1.87001L3.92995 1.89003H3.91995ZM1.97995 21.05L12.45 12.28L2.00995 3.45003L1.96996 21.05H1.97995ZM35.95 3.45003L25.4799 12.22L35.92 21.05L35.96 3.45003H35.95ZM13.6499 13.19L2.91995 22.24C3.25995 22.53 3.73995 22.6 4.17995 22.64C14.2799 22.55 24.41 22.8 34.49 22.51L35.0099 22.24L24.28 13.19L19.22 17.37C18.9 17.53 18.6 17.34 18.35 17.15L13.6499 13.19Z" fill="black"/>
</svg>
