<svg width="94" height="185" viewBox="0 0 94 185" fill="none" xmlns="http://www.w3.org/2000/svg">
<path d="M63.184 184.048C48.198 184.048 35.244 180.45 24.322 173.253C13.4847 165.972 5.44133 155.6 0.192 142.138L29.656 130.2C37.1913 145.355 48.3673 152.933 63.184 152.933C71.82 152.933 78.5933 150.816 83.504 146.583C88.4993 142.35 90.997 136.55 90.997 129.184C90.997 122.241 88.457 116.738 83.377 112.674C78.297 108.525 71.4813 106.451 62.93 106.451H45.785V75.082H62.422C69.3647 75.082 74.8257 73.0923 78.805 69.113C82.869 65.049 84.901 59.6303 84.901 52.857C84.901 46.4223 82.8267 41.2153 78.678 37.236C74.5293 33.172 69.1107 31.14 62.422 31.14C56.6647 31.14 51.4577 32.664 46.801 35.712C42.229 38.6753 38.3767 43.0357 35.244 48.793L5.526 37.236C11.0293 25.4673 18.734 16.3657 28.64 9.93098C38.6307 3.41166 49.976 0.151997 62.676 0.151997C73.5133 0.151997 83.0807 2.26866 91.378 6.50199C99.6753 10.6507 106.152 16.4927 110.809 24.028C115.466 31.4787 117.794 40.0723 117.794 49.809C117.794 58.0217 115.889 65.557 112.079 72.415C108.354 79.1883 103.104 84.6917 96.331 88.925C104.882 92.3117 111.613 97.8997 116.524 105.689C121.435 113.478 123.89 122.453 123.89 132.613C123.89 142.604 121.308 151.494 116.143 159.283C110.978 166.988 103.782 173.041 94.553 177.444C85.409 181.847 74.9527 184.048 63.184 184.048Z" fill="#3C50E0" fill-opacity="0.03"/>
</svg>
