<svg width="1188" height="784" viewBox="0 0 1188 784" fill="none" xmlns="http://www.w3.org/2000/svg">
<path d="M1187.05 392H686.911V784C548.906 784 423.872 740.083 333.079 669.328C242.287 598.573 186.773 500.573 186.773 392C186.773 175.261 410.902 0 686.911 0C824.916 0 949.951 43.917 1040.74 114.672C1131.02 185.834 1187.05 283.834 1187.05 392Z" fill="#92193B"/>
<path d="M684.836 203.32C551.554 203.32 443.587 287.942 443.587 392.407C443.587 496.872 551.554 581.494 684.836 581.494C818.119 581.494 926.085 496.872 926.085 392.407C926.085 287.942 818.119 203.32 684.836 203.32Z" fill="white"/>
<path d="M336.192 392C336.192 319.211 260.964 260.249 168.096 260.249C75.2282 260.249 0 319.211 0 392H336.192Z" fill="black"/>
</svg>
