<svg width="1440" height="562" viewBox="0 0 1440 562" fill="none" xmlns="http://www.w3.org/2000/svg">
<path d="M146.024 82.0244C167.779 60.2702 180 30.7651 180 0L64 1.1722e-05L64 116C94.7651 116 124.27 103.779 146.024 82.0244Z" fill="#92193B"/>
<path d="M64.75 116C64.75 151.899 35.6485 181 -0.25 181C-36.1485 181 -65.25 151.899 -65.25 116C-65.25 80.1015 -36.1485 51 -0.25 51C35.6485 51 64.75 80.1015 64.75 116ZM-29.2119 116C-29.2119 131.995 -16.2452 144.962 -0.25 144.962C15.7452 144.962 28.7119 131.995 28.7119 116C28.7119 100.005 15.7452 87.0381 -0.25 87.0381C-16.2452 87.0381 -29.2119 100.005 -29.2119 116Z" fill="black"/>
<path d="M1416.32 505.431C1401.32 490.429 1380.97 482 1359.75 482L1359.75 562L1439.75 562C1439.75 540.783 1431.32 520.434 1416.32 505.431Z" fill="#1E5DBC"/>
</svg>
