<svg width="1149" height="928" viewBox="0 0 1149 928" fill="none" xmlns="http://www.w3.org/2000/svg">
<path d="M1109.24 468.243C1078.12 412.819 1030.65 368.353 973.314 340.921C915.975 313.489 851.566 304.428 788.885 314.976C726.204 325.524 668.307 355.167 623.106 399.855C577.904 444.543 547.602 502.097 536.338 564.653C525.075 627.21 533.399 691.719 560.175 749.366C586.95 807.014 630.871 854.99 685.936 886.739C741.002 918.488 804.526 932.462 867.832 926.752C931.138 921.042 991.137 895.927 1039.63 854.837L931.153 726.806C909.024 745.556 881.645 757.016 852.758 759.622C823.87 762.227 794.883 755.851 769.755 741.363C744.628 726.875 724.586 704.983 712.368 678.678C700.15 652.372 696.352 622.936 701.491 594.39C706.631 565.844 720.459 539.582 741.085 519.19C761.711 498.798 788.13 485.271 816.733 480.458C845.335 475.644 874.726 479.779 900.891 492.297C927.055 504.815 948.717 525.105 962.916 550.396L1109.24 468.243Z" fill="#92193B"/>
<path d="M220.758 308.652C220.758 226.793 253.276 148.286 311.16 90.4022C369.043 32.5187 447.55 9.15527e-05 529.41 9.15527e-05C611.269 9.15527e-05 689.776 32.5187 747.66 90.4021C805.543 148.286 838.062 226.792 838.062 308.652L529.41 308.652L220.758 308.652Z" fill="#BA2042"/>
<path d="M0 306.608C-7.15639e-06 388.467 32.5186 466.974 90.402 524.858C148.286 582.741 226.792 615.26 308.652 615.26C390.512 615.26 469.018 582.741 526.902 524.858C584.785 466.974 617.304 388.468 617.304 306.608L308.652 306.608L0 306.608Z" fill="#231F20"/>
</svg>
