<svg width="20" height="40" viewBox="0 0 20 40" fill="none" xmlns="http://www.w3.org/2000/svg">
<path d="M13.52 12.45H18.24C18.39 12.45 19.12 13.1 19.18 13.31C19.28 13.66 19.22 14.38 19.21 14.78C19.17 15.94 19.01 18.67 18.73 19.7C18.65 20.01 18.06 20.71 17.79 20.71H13.52V38.19C13.52 39.18 12.47 39.55 11.65 39.62C10.17 39.75 7.11004 39.7699 5.67004 39.5999C5.22004 39.5499 4.08001 39.19 4.08001 38.64V20.71H1.31002C0.620025 20.71 0.24002 19.73 0.18002 19.14C0.0700197 17.95 0.0400392 14.89 0.200039 13.75C0.260039 13.33 0.730031 12.46 1.16003 12.46H4.08001V6.82998C4.08001 4.47998 6.84004 1.67997 8.92004 0.879969C10.79 0.159969 15.41 0.129952 17.49 0.299952C18.3 0.369952 19.2 0.639991 19.35 1.58999C19.52 2.67999 19.47 5.96998 19.37 7.13998C19.32 7.62998 19.03 8.37999 18.51 8.52999C17.79 8.73999 13.52 8.16999 13.52 9.08999V12.4699V12.45ZM17.56 2.09994H11.19C9.15003 2.09994 5.87002 4.70998 5.87002 6.82998V14.03L5.65002 14.26H1.98004V18.9099H5.65002L5.87002 19.14V37.82H11.71V18.9199H17.1L17.4 14.27H11.71V8.78994C11.71 8.27994 12.96 6.90994 13.43 6.90994H17.55V2.10995L17.56 2.09994Z" fill="black"/>
</svg>
