<svg width="35" height="40" viewBox="0 0 35 40" fill="none" xmlns="http://www.w3.org/2000/svg">
<path d="M31.14 13.6999C29.9 8.7299 26.4 5.2899 21.34 4.3199C15.73 3.2399 9.40996 4.47988 6.25996 9.60988C2.49996 15.7199 2.75997 28.0799 8.44997 33.0299C12.9 36.8999 22.01 37.1499 26.53 33.2799C30.2 30.1299 30.67 24.8099 26.28 22.1199C25.6 27.1099 22.33 30.6199 17.06 30.3299C12.63 30.0899 8.68997 26.5399 10.3 21.8599C11.99 16.9399 18.51 16.6899 22.82 17.3099C22.36 14.0599 20.18 12.8799 17.06 13.0999C15.67 13.1999 14.08 13.9499 13.41 15.2099L10.55 13.3099C12.82 9.42989 18.79 8.61987 22.49 10.7899C25.19 12.3699 26.21 15.4099 26.45 18.3899C33.82 21.3299 34.93 30.1899 29.23 35.4799C23.1 41.1799 10.87 40.7499 5.14996 34.6299C-0.900038 28.1499 -1.12003 14.2799 3.77997 7.11989C10.24 -2.31011 27.04 -1.52009 32.72 8.45991C33.03 9.00991 34.66 12.4299 34.4 12.7999L31.14 13.6899V13.6999ZM22.93 20.8099C20.41 20.3499 13.92 19.8999 13.44 23.4899C13 26.8199 17.75 27.4899 20.06 26.4099C22.11 25.4499 22.8 22.9099 22.93 20.8199V20.8099Z" fill="black"/>
</svg>
