<svg width="90" height="181" viewBox="0 0 90 181" fill="none" xmlns="http://www.w3.org/2000/svg">
<path d="M0.383001 181C0.383001 167.961 1.94933 156.531 5.082 146.71C8.21467 136.804 12.5327 128.083 18.036 120.548C23.5393 113.013 29.8893 106.366 37.086 100.609C44.3673 94.8517 52.072 89.687 60.2 85.115C65.026 82.4057 69.5557 79.527 73.789 76.479C78.0223 73.431 81.4513 70.002 84.076 66.192C86.7007 62.382 88.013 57.9793 88.013 52.984C88.013 46.2953 85.7693 41.0037 81.282 37.109C76.8793 33.1297 70.9527 31.14 63.502 31.14C55.7127 31.14 49.278 33.0027 44.198 36.728C39.2027 40.3687 35.308 45.4487 32.514 51.968L3.177 38.633C7.91834 26.949 15.7077 17.6357 26.545 10.693C37.467 3.66566 49.659 0.151997 63.121 0.151997C75.313 0.151997 85.6847 2.48033 94.236 7.13699C102.872 11.709 109.434 17.932 113.921 25.806C118.493 33.5953 120.779 42.4007 120.779 52.222C120.779 62.5513 118.916 71.1873 115.191 78.13C111.55 85.0727 106.555 91.084 100.205 96.164C93.9397 101.244 86.9123 106.07 79.123 110.642C71.4183 115.214 64.8567 119.447 59.438 123.342C54.104 127.152 49.7437 131.131 46.357 135.28C42.9703 139.344 40.4303 144.043 38.737 149.377H122.303V181H0.383001Z" fill="#3C50E0" fill-opacity="0.03"/>
</svg>
