<svg width="39" height="40" viewBox="0 0 39 40" fill="none" xmlns="http://www.w3.org/2000/svg">
<path d="M9.65999 0.890087C16.11 1.12009 22.88 0.500057 29.3 0.860057C34.33 1.15006 38.32 5.13007 38.72 10.1201C38.4 16.5501 39.15 23.3901 38.72 29.7701C38.39 34.6601 34.35 38.7001 29.46 39.0301C23.08 39.4601 16.24 38.7101 9.80998 39.0301C4.92998 38.6901 0.879972 34.6601 0.549972 29.7701C0.129972 23.4101 0.869972 16.6001 0.549972 10.1901C0.869972 5.30007 4.78 1.28008 9.67 0.880077L9.65999 0.890087ZM9.73997 2.52009C5.62997 2.92009 2.42 6.22006 2.17 10.3601C1.78 16.6301 2.47 23.3001 2.17 29.6201C2.47 33.7701 5.73999 37.0501 9.87999 37.4001H29.37C33.48 37.0601 36.73 33.8101 37.08 29.6901V10.2001C36.74 6.12008 33.53 2.87007 29.44 2.50007H9.73997V2.52009Z" fill="black"/>
<path d="M18.7199 10.52C26.5899 9.85002 31.8299 18.45 27.5299 25.12C23.9399 30.69 15.7399 30.84 11.8999 25.45C7.6999 19.55 11.5199 11.13 18.7199 10.52ZM18.7999 12.15C12.6299 12.75 9.56991 20.21 13.5999 24.97C17.2199 29.25 24.0199 28.5 26.5799 23.52C29.4099 18 24.9499 11.56 18.7999 12.15Z" fill="black"/>
<path d="M30.29 6.11002C34.09 5.60002 34.57 11.42 30.84 11.63C27.36 11.83 26.87 6.57002 30.29 6.11002ZM30.45 7.74002C29.22 7.95002 29.29 9.81002 30.53 9.99002C32.18 10.23 32.25 7.43002 30.45 7.74002Z" fill="black"/>
</svg>
