<svg width="121" height="57" viewBox="0 0 121 57" fill="none" xmlns="http://www.w3.org/2000/svg">
<path d="M29.76 51.0902H30.69V51.8802C30.91 51.6102 31.11 51.4102 31.29 51.2802C31.6 51.0702 31.95 50.9602 32.34 50.9602C32.78 50.9602 33.14 51.0702 33.41 51.2902C33.56 51.4102 33.7 51.6002 33.83 51.8402C34.04 51.5402 34.28 51.3202 34.56 51.1802C34.84 51.0402 35.16 50.9602 35.51 50.9602C36.26 50.9602 36.77 51.2302 37.04 51.7702C37.19 52.0602 37.26 52.4502 37.26 52.9502V56.6702H36.29V52.7902C36.29 52.4202 36.2 52.1602 36.01 52.0202C35.82 51.8802 35.6 51.8102 35.33 51.8102C34.96 51.8102 34.64 51.9302 34.38 52.1802C34.12 52.4302 33.98 52.8402 33.98 53.4102V56.6602H33.03V53.0202C33.03 52.6402 32.99 52.3702 32.89 52.1902C32.75 51.9302 32.48 51.8002 32.09 51.8002C31.74 51.8002 31.41 51.9402 31.12 52.2102C30.83 52.4802 30.69 52.9802 30.69 53.7002V56.6602H29.75V51.0802L29.76 51.0902Z" fill="#231F20"/>
<path d="M41.65 53.3002C41.87 53.2702 42.01 53.1802 42.08 53.0302C42.12 52.9502 42.14 52.8302 42.14 52.6702C42.14 52.3502 42.03 52.1202 41.8 51.9702C41.57 51.8302 41.25 51.7502 40.83 51.7502C40.34 51.7502 39.99 51.8802 39.79 52.1502C39.68 52.3002 39.6 52.5102 39.57 52.8002H38.69C38.71 52.1102 38.93 51.6302 39.36 51.3602C39.79 51.0902 40.29 50.9502 40.85 50.9502C41.51 50.9502 42.04 51.0802 42.45 51.3302C42.86 51.5802 43.06 51.9702 43.06 52.5002V55.7202C43.06 55.8202 43.08 55.9002 43.12 55.9502C43.16 56.0002 43.24 56.0402 43.37 56.0402C43.41 56.0402 43.46 56.0402 43.51 56.0402C43.56 56.0402 43.62 56.0302 43.68 56.0202V56.7102C43.53 56.7502 43.42 56.7802 43.35 56.7902C43.27 56.8002 43.17 56.8102 43.04 56.8102C42.72 56.8102 42.48 56.7002 42.34 56.4702C42.26 56.3502 42.21 56.1802 42.18 55.9502C41.99 56.2002 41.72 56.4202 41.36 56.6002C41 56.7802 40.61 56.8802 40.18 56.8802C39.66 56.8802 39.24 56.7202 38.91 56.4102C38.58 56.1002 38.42 55.7002 38.42 55.2302C38.42 54.7102 38.58 54.3102 38.9 54.0302C39.22 53.7502 39.65 53.5702 40.17 53.5002L41.67 53.3102L41.65 53.3002ZM39.67 55.8302C39.87 55.9902 40.1 56.0602 40.37 56.0602C40.7 56.0602 41.02 55.9802 41.33 55.8302C41.85 55.5802 42.11 55.1602 42.11 54.5902V53.8402C42 53.9102 41.85 53.9702 41.67 54.0202C41.49 54.0702 41.31 54.1002 41.14 54.1202L40.57 54.1902C40.23 54.2302 39.98 54.3102 39.8 54.4002C39.51 54.5602 39.37 54.8202 39.37 55.1802C39.37 55.4502 39.47 55.6602 39.67 55.8202V55.8302Z" fill="#231F20"/>
<path d="M44.78 49.54H45.73V51.1H46.62V51.87H45.73V55.51C45.73 55.7 45.8 55.83 45.93 55.9C46 55.94 46.12 55.96 46.3 55.96C46.34 55.96 46.39 55.96 46.45 55.96C46.5 55.96 46.56 55.96 46.63 55.94V56.69C46.52 56.72 46.41 56.74 46.29 56.76C46.17 56.77 46.05 56.78 45.91 56.78C45.47 56.78 45.18 56.67 45.02 56.44C44.86 56.22 44.78 55.92 44.78 55.57V51.88H44.03V51.11H44.78V49.55V49.54Z" fill="#231F20"/>
<path d="M47.74 49.54H48.69V51.1H49.58V51.87H48.69V55.51C48.69 55.7 48.76 55.83 48.89 55.9C48.96 55.94 49.08 55.96 49.26 55.96C49.3 55.96 49.35 55.96 49.41 55.96C49.46 55.96 49.52 55.96 49.59 55.94V56.69C49.48 56.72 49.37 56.74 49.25 56.76C49.13 56.77 49.01 56.78 48.87 56.78C48.43 56.78 48.14 56.67 47.98 56.44C47.82 56.22 47.74 55.92 47.74 55.57V51.88H46.99V51.11H47.74V49.55V49.54Z" fill="#231F20"/>
<path d="M53.9699 51.2502C54.3399 51.4402 54.6199 51.6802 54.8099 51.9702C54.9999 52.2502 55.1199 52.5802 55.1799 52.9502C55.2399 53.2102 55.2599 53.6202 55.2599 54.1802H51.2C51.22 54.7502 51.3499 55.2002 51.5999 55.5502C51.8499 55.8902 52.2299 56.0602 52.7499 56.0602C53.2399 56.0602 53.6199 55.9002 53.9099 55.5702C54.0699 55.3802 54.1899 55.1602 54.2499 54.9202H55.17C55.15 55.1302 55.0599 55.3502 54.9299 55.6102C54.7899 55.8602 54.6399 56.0702 54.4699 56.2302C54.1899 56.5102 53.84 56.7002 53.42 56.7902C53.2 56.8502 52.9399 56.8702 52.6599 56.8702C51.9699 56.8702 51.3799 56.6202 50.9099 56.1102C50.4299 55.6002 50.1899 54.9002 50.1899 53.9902C50.1899 53.0802 50.4299 52.3702 50.9099 51.8102C51.3899 51.2502 52.0299 50.9702 52.8099 50.9702C53.1999 50.9702 53.59 51.0602 53.95 51.2502H53.9699ZM54.2999 53.4402C54.2599 53.0302 54.1699 52.7102 54.0399 52.4702C53.7899 52.0202 53.3599 51.7902 52.7599 51.7902C52.3299 51.7902 51.9699 51.9502 51.6899 52.2602C51.3999 52.5702 51.2499 52.9702 51.2299 53.4502H54.2999V53.4402Z" fill="#231F20"/>
<path d="M56.48 51.0902H57.37V52.0502C57.44 51.8602 57.62 51.6302 57.91 51.3602C58.2 51.0902 58.52 50.9602 58.89 50.9602C58.91 50.9602 58.94 50.9602 58.98 50.9602C59.02 50.9602 59.09 50.9702 59.19 50.9802V51.9702C59.13 51.9602 59.08 51.9502 59.04 51.9502C58.99 51.9502 58.94 51.9502 58.89 51.9502C58.42 51.9502 58.06 52.1002 57.8 52.4102C57.55 52.7102 57.42 53.0602 57.42 53.4602V56.6702H56.48V51.0902Z" fill="#231F20"/>
<path d="M67.02 51.6502C67.51 52.1302 67.76 52.8302 67.76 53.7602C67.76 54.6902 67.54 55.4002 67.11 55.9902C66.68 56.5802 66 56.8702 65.09 56.8702C64.33 56.8702 63.72 56.6102 63.27 56.0902C62.82 55.5702 62.6 54.8702 62.6 54.0002C62.6 53.0602 62.84 52.3202 63.31 51.7602C63.78 51.2002 64.42 50.9302 65.21 50.9302C65.92 50.9302 66.53 51.1702 67.02 51.6502ZM66.43 55.3602C66.66 54.8902 66.77 54.3702 66.77 53.7902C66.77 53.2702 66.69 52.8502 66.52 52.5202C66.26 52.0102 65.81 51.7502 65.17 51.7502C64.6 51.7502 64.19 51.9702 63.93 52.4102C63.67 52.8502 63.54 53.3702 63.54 53.9902C63.54 54.6102 63.67 55.0802 63.93 55.4702C64.19 55.8702 64.6 56.0602 65.16 56.0602C65.78 56.0602 66.2 55.8302 66.42 55.3502L66.43 55.3602Z" fill="#231F20"/>
<path d="M69.35 49.3902C69.57 49.0702 69.99 48.9102 70.62 48.9102C70.68 48.9102 70.74 48.9102 70.8 48.9102C70.86 48.9102 70.93 48.9101 71.01 48.9301V49.7802C70.91 49.7802 70.84 49.7701 70.8 49.7701C70.76 49.7701 70.72 49.7701 70.68 49.7701C70.39 49.7701 70.22 49.8401 70.16 49.9901C70.1 50.1401 70.08 50.5101 70.08 51.1201H71.02V51.8601H70.08V56.6702H69.15V51.8601H68.37V51.1201H69.15V50.2401C69.16 49.8501 69.23 49.5702 69.35 49.3902Z" fill="#231F20"/>
<path d="M78.28 51.2502C78.65 51.4402 78.93 51.6802 79.12 51.9702C79.31 52.2502 79.43 52.5802 79.49 52.9502C79.55 53.2102 79.57 53.6202 79.57 54.1802H75.51C75.53 54.7502 75.66 55.2002 75.91 55.5502C76.16 55.8902 76.54 56.0602 77.06 56.0602C77.55 56.0602 77.93 55.9002 78.22 55.5702C78.38 55.3802 78.5 55.1602 78.56 54.9202H79.48C79.46 55.1302 79.37 55.3502 79.24 55.6102C79.1 55.8602 78.95 56.0702 78.78 56.2302C78.5 56.5102 78.15 56.7002 77.73 56.7902C77.51 56.8502 77.25 56.8702 76.97 56.8702C76.28 56.8702 75.69 56.6202 75.22 56.1102C74.74 55.6002 74.5 54.9002 74.5 53.9902C74.5 53.0802 74.74 52.3702 75.22 51.8102C75.7 51.2502 76.34 50.9702 77.12 50.9702C77.51 50.9702 77.9 51.0602 78.26 51.2502H78.28ZM78.62 53.4402C78.58 53.0302 78.49 52.7102 78.36 52.4702C78.11 52.0202 77.68 51.7902 77.08 51.7902C76.65 51.7902 76.29 51.9502 76.01 52.2602C75.72 52.5702 75.57 52.9702 75.55 53.4502H78.62V53.4402Z" fill="#231F20"/>
<path d="M83.84 51.2702C84.01 51.3702 84.19 51.5603 84.41 51.8203V49.0002H85.31V56.6802H84.47V55.9002C84.25 56.2402 83.99 56.4902 83.7 56.6502C83.41 56.8102 83.06 56.8802 82.68 56.8802C82.06 56.8802 81.52 56.6203 81.07 56.1003C80.62 55.5803 80.39 54.8803 80.39 54.0103C80.39 53.2003 80.6 52.4902 81.01 51.9002C81.42 51.3002 82.01 51.0103 82.78 51.0103C83.21 51.0103 83.56 51.1002 83.85 51.2802L83.84 51.2702ZM81.74 55.4503C81.99 55.8503 82.4 56.0502 82.95 56.0502C83.38 56.0502 83.74 55.8602 84.02 55.4902C84.3 55.1202 84.44 54.5802 84.44 53.8802C84.44 53.1802 84.3 52.6502 84.01 52.3102C83.72 51.9702 83.37 51.8002 82.95 51.8002C82.48 51.8002 82.1 51.9802 81.81 52.3402C81.52 52.7002 81.37 53.2302 81.37 53.9302C81.37 54.5302 81.5 55.0302 81.75 55.4302L81.74 55.4503Z" fill="#231F20"/>
<path d="M87.6499 51.0901V54.7901C87.6499 55.0801 87.6899 55.3101 87.7799 55.4901C87.9399 55.8201 88.2399 55.9901 88.6899 55.9901C89.3299 55.9901 89.7599 55.7001 89.9899 55.1101C90.1099 54.8001 90.1799 54.3701 90.1799 53.8201V51.0801H91.1199V56.6601H90.2299V55.8401C90.12 56.0501 89.9699 56.2301 89.7999 56.3801C89.4499 56.6701 89.0199 56.8201 88.5199 56.8201C87.7399 56.8201 87.2099 56.5501 86.9299 56.0201C86.7799 55.7301 86.7 55.3501 86.7 54.8801V51.0901H87.6599H87.6499Z" fill="#231F20"/>
<path d="M96.33 51.3902C96.72 51.7002 96.96 52.2202 97.04 52.9702H96.13C96.07 52.6302 95.95 52.3401 95.75 52.1101C95.55 51.8801 95.23 51.7701 94.8 51.7701C94.2 51.7701 93.78 52.0602 93.52 52.6402C93.35 53.0202 93.27 53.4802 93.27 54.0402C93.27 54.6002 93.39 55.0702 93.62 55.4502C93.86 55.8302 94.23 56.0201 94.74 56.0201C95.13 56.0201 95.44 55.9002 95.66 55.6602C95.89 55.4202 96.04 55.1002 96.13 54.6902H97.04C96.94 55.4302 96.67 55.9701 96.26 56.3102C95.84 56.6502 95.31 56.8202 94.66 56.8202C93.93 56.8202 93.35 56.5501 92.91 56.0201C92.48 55.4901 92.26 54.8201 92.26 54.0201C92.26 53.0401 92.5 52.2802 92.97 51.7302C93.45 51.1902 94.05 50.9102 94.79 50.9102C95.42 50.9102 95.93 51.0601 96.32 51.3701L96.33 51.3902Z" fill="#231F20"/>
<path d="M100.97 53.3002C101.19 53.2702 101.33 53.1802 101.4 53.0302C101.44 52.9502 101.46 52.8302 101.46 52.6702C101.46 52.3502 101.35 52.1202 101.12 51.9702C100.89 51.8302 100.57 51.7502 100.15 51.7502C99.66 51.7502 99.31 51.8802 99.11 52.1502C99 52.3002 98.92 52.5102 98.89 52.8002H98.01C98.03 52.1102 98.25 51.6302 98.68 51.3602C99.11 51.0902 99.61 50.9502 100.17 50.9502C100.83 50.9502 101.36 51.0802 101.77 51.3302C102.18 51.5802 102.38 51.9702 102.38 52.5002V55.7202C102.38 55.8202 102.4 55.9002 102.44 55.9502C102.48 56.0002 102.56 56.0402 102.69 56.0402C102.73 56.0402 102.78 56.0402 102.83 56.0402C102.88 56.0402 102.94 56.0302 103 56.0202V56.7102C102.85 56.7502 102.74 56.7802 102.67 56.7902C102.59 56.8002 102.49 56.8102 102.36 56.8102C102.04 56.8102 101.8 56.7002 101.66 56.4702C101.58 56.3502 101.53 56.1802 101.5 55.9502C101.31 56.2002 101.04 56.4202 100.68 56.6002C100.32 56.7802 99.93 56.8802 99.5 56.8802C98.98 56.8802 98.56 56.7202 98.23 56.4102C97.9 56.1002 97.74 55.7002 97.74 55.2302C97.74 54.7102 97.9 54.3102 98.22 54.0302C98.54 53.7502 98.97 53.5702 99.49 53.5002L100.99 53.3102L100.97 53.3002ZM98.99 55.8302C99.19 55.9902 99.42 56.0602 99.69 56.0602C100.02 56.0602 100.34 55.9802 100.65 55.8302C101.17 55.5802 101.43 55.1602 101.43 54.5902V53.8402C101.32 53.9102 101.17 53.9702 100.99 54.0202C100.81 54.0702 100.63 54.1002 100.46 54.1202L99.89 54.1902C99.55 54.2302 99.3 54.3102 99.12 54.4002C98.83 54.5602 98.69 54.8202 98.69 55.1802C98.69 55.4502 98.79 55.6602 98.99 55.8202V55.8302Z" fill="#231F20"/>
<path d="M104.1 49.54H105.05V51.1H105.94V51.87H105.05V55.51C105.05 55.7 105.12 55.83 105.25 55.9C105.32 55.94 105.44 55.96 105.62 55.96C105.66 55.96 105.71 55.96 105.77 55.96C105.82 55.96 105.88 55.96 105.95 55.94V56.69C105.84 56.72 105.73 56.74 105.61 56.76C105.49 56.77 105.37 56.78 105.23 56.78C104.79 56.78 104.5 56.67 104.34 56.44C104.18 56.22 104.1 55.92 104.1 55.57V51.88H103.35V51.11H104.1V49.55V49.54Z" fill="#231F20"/>
<path d="M106.88 49.02H107.83V50.08H106.88V49.02ZM106.88 51.12H107.83V56.67H106.88V51.12Z" fill="#231F20"/>
<path d="M113.29 51.6502C113.78 52.1302 114.03 52.8302 114.03 53.7602C114.03 54.6902 113.81 55.4002 113.38 55.9902C112.95 56.5802 112.27 56.8702 111.36 56.8702C110.6 56.8702 109.99 56.6102 109.54 56.0902C109.09 55.5702 108.87 54.8702 108.87 54.0002C108.87 53.0602 109.11 52.3202 109.58 51.7602C110.05 51.2002 110.69 50.9302 111.48 50.9302C112.19 50.9302 112.8 51.1702 113.29 51.6502ZM112.71 55.3602C112.94 54.8902 113.05 54.3702 113.05 53.7902C113.05 53.2702 112.97 52.8502 112.8 52.5202C112.54 52.0102 112.09 51.7502 111.45 51.7502C110.88 51.7502 110.47 51.9702 110.21 52.4102C109.95 52.8502 109.82 53.3702 109.82 53.9902C109.82 54.6102 109.95 55.0802 110.21 55.4702C110.47 55.8702 110.88 56.0602 111.44 56.0602C112.06 56.0602 112.48 55.8302 112.7 55.3502L112.71 55.3602Z" fill="#231F20"/>
<path d="M115.18 51.0902H116.07V51.8802C116.33 51.5502 116.61 51.3202 116.91 51.1802C117.2 51.0402 117.53 50.9702 117.89 50.9702C118.68 50.9702 119.22 51.2502 119.5 51.8002C119.65 52.1002 119.73 52.5302 119.73 53.1002V56.6802H118.78V53.1602C118.78 52.8202 118.73 52.5502 118.63 52.3402C118.46 51.9902 118.16 51.8202 117.72 51.8202C117.5 51.8202 117.31 51.8402 117.17 51.8902C116.91 51.9702 116.69 52.1202 116.49 52.3502C116.33 52.5302 116.23 52.7202 116.19 52.9202C116.15 53.1202 116.12 53.4002 116.12 53.7602V56.6802H115.18V51.1002V51.0902Z" fill="#231F20"/>
<path d="M12.14 32.3101C10.74 32.3101 9.62996 32.8701 8.81996 33.9801C8.30996 32.8701 7.34997 32.3101 5.94997 32.3101C4.54997 32.3101 3.52997 32.8701 2.72997 33.9801V32.58H0.0799561V42.7201H2.86995V37.2201C2.86995 35.4501 3.53997 34.5701 4.88997 34.5701C5.48997 34.5701 5.89994 34.7401 6.10994 35.0901C6.31994 35.4401 6.41997 35.93 6.41997 36.55V42.7201H9.20995V37.0201C9.20995 35.4001 9.85996 34.58 11.16 34.58C11.81 34.58 12.2499 34.7601 12.4599 35.1201C12.6699 35.4801 12.7699 35.9901 12.7699 36.6601V42.7101H15.6V35.8901C15.6 34.7901 15.2999 33.9201 14.7099 33.2701C14.1099 32.6201 13.2599 32.3 12.1499 32.3L12.14 32.3101Z" fill="black"/>
<path d="M22.46 32.29C20.98 32.29 19.76 32.8 18.81 33.82C17.85 34.84 17.38 36.14 17.38 37.71C17.38 39.28 17.85 40.59 18.8 41.56C19.75 42.53 21 43.01 22.56 43.01C23.73 43.01 24.73 42.71 25.58 42.11C26.42 41.51 27 40.66 27.32 39.58H24.65C24.26 40.56 23.57 41.05 22.59 41.05C21.84 41.05 21.26 40.82 20.85 40.36C20.44 39.9 20.22 39.23 20.21 38.36H27.48V38.08C27.48 36.3 27.03 34.89 26.12 33.85C25.21 32.81 24 32.29 22.47 32.29H22.46ZM20.2 36.6C20.28 35.89 20.52 35.34 20.93 34.93C21.34 34.52 21.85 34.32 22.46 34.32C23.11 34.32 23.63 34.53 23.99 34.96C24.36 35.39 24.57 35.93 24.64 36.6H20.2Z" fill="black"/>
<path d="M35.09 32.3101C33.69 32.3101 32.57 32.8701 31.73 34.0001V32.5901H29.08V42.7301H31.85V37.2901C31.85 35.5101 32.58 34.6201 34.05 34.6201C34.73 34.6201 35.19 34.8101 35.43 35.1801C35.67 35.5501 35.78 36.1001 35.78 36.8201V42.7301H38.61V35.9501C38.61 34.7801 38.3 33.8901 37.67 33.2601C37.04 32.6301 36.18 32.3201 35.1 32.3201L35.09 32.3101Z" fill="black"/>
<path d="M44.2299 29.52H41.4599V32.58H39.7699V34.47H41.4599V39.74C41.4599 40.96 41.6799 41.78 42.1199 42.21C42.5599 42.64 43.3899 42.85 44.6099 42.85C45.0599 42.85 45.6199 42.82 46.2999 42.77V40.65C46.0799 40.68 45.7999 40.69 45.4599 40.69C45.1599 40.69 44.9299 40.67 44.7599 40.62C44.5999 40.57 44.4799 40.48 44.3999 40.34C44.3199 40.2 44.2799 40.06 44.2599 39.92C44.2499 39.78 44.2399 39.56 44.2399 39.26V34.49H46.2999V32.6H44.2399V29.54L44.2299 29.52Z" fill="black"/>
<path d="M52.62 32.29C51.03 32.29 49.76 32.78 48.79 33.76C47.82 34.74 47.34 36.04 47.34 37.65C47.34 39.26 47.82 40.58 48.77 41.56C49.72 42.54 51 43.03 52.58 43.03C54.16 43.03 55.43 42.54 56.38 41.56C57.33 40.58 57.8 39.27 57.8 37.65C57.8 36.03 57.33 34.74 56.38 33.76C55.43 32.78 54.18 32.29 52.62 32.29ZM54.37 40.06C53.94 40.64 53.34 40.93 52.57 40.93C51.8 40.93 51.19 40.64 50.76 40.07C50.33 39.49 50.11 38.69 50.11 37.65C50.11 36.61 50.33 35.85 50.76 35.27C51.19 34.69 51.78 34.41 52.53 34.41C53.28 34.41 53.91 34.69 54.35 35.26C54.79 35.83 55.01 36.62 55.01 37.63C55.01 38.64 54.8 39.47 54.37 40.06Z" fill="black"/>
<path d="M62.3199 34.4501V32.5801H59.6699V42.7201H61.2599L62.4599 39.4501V38.0801C62.4599 37.1001 62.6799 36.3201 63.1099 35.7301C63.1499 35.6701 63.2099 35.6301 63.2599 35.5801C63.4799 35.3401 63.7599 35.1501 64.0899 35.0301L64.6299 33.5501L65.0599 32.3701C63.8199 32.5201 62.9099 33.2101 62.3199 34.4401V34.4501Z" fill="black"/>
<path d="M81.21 32.6101C79.73 32.6101 78.51 33.1201 77.56 34.1401C76.6 35.1601 76.13 36.4601 76.13 38.0301C76.13 39.6001 76.6 40.9101 77.55 41.8801C78.5 42.8501 79.75 43.3301 81.31 43.3301C82.48 43.3301 83.48 43.0301 84.33 42.4301C85.18 41.8301 85.75 40.9801 86.07 39.9001H83.4C83.01 40.8801 82.32 41.3701 81.34 41.3701C80.59 41.3701 80.01 41.1401 79.6 40.6801C79.19 40.2201 78.97 39.5501 78.96 38.6801H86.23V38.4001C86.23 36.6201 85.78 35.2101 84.87 34.1701C83.96 33.1301 82.75 32.6101 81.22 32.6101H81.21ZM78.96 36.9101C79.04 36.2001 79.28 35.6501 79.69 35.2401C80.1 34.8301 80.61 34.6301 81.22 34.6301C81.87 34.6301 82.39 34.8401 82.75 35.2701C83.11 35.7001 83.33 36.2401 83.4 36.9101H78.96Z" fill="#92193B"/>
<path d="M93.85 32.6301C92.45 32.6301 91.33 33.1901 90.49 34.3201V32.9101H87.84V43.0501H90.61V37.6101C90.61 35.8301 91.34 34.9401 92.81 34.9401C93.49 34.9401 93.95 35.1301 94.19 35.5001C94.43 35.8701 94.54 36.4201 94.54 37.1401V43.0501H97.37V36.2701C97.37 35.1001 97.06 34.2101 96.43 33.5801C95.8 32.9501 94.94 32.6401 93.86 32.6401L93.85 32.6301Z" fill="#92193B"/>
<path d="M104.28 41.1701C103.53 41.1701 102.95 40.8901 102.54 40.3301C102.13 39.7701 101.92 38.9901 101.92 37.9801C101.92 36.9701 102.13 36.1401 102.56 35.5501C102.99 34.9601 103.58 34.6801 104.34 34.6801C105.47 34.6801 106.13 35.2601 106.34 36.4301H109.07C108.95 35.2501 108.47 34.3201 107.62 33.6301C106.77 32.9401 105.67 32.6001 104.32 32.6001C102.75 32.6001 101.49 33.1001 100.54 34.0901C99.59 35.0901 99.12 36.4001 99.12 38.0401C99.12 39.6801 99.59 40.9001 100.53 41.8501C101.47 42.8101 102.72 43.2801 104.28 43.2801C105.63 43.2801 106.73 42.9101 107.59 42.1801C108.45 41.4501 108.96 40.4201 109.13 39.1101H106.44C106.22 40.4701 105.5 41.1501 104.28 41.1501V41.1701Z" fill="#92193B"/>
<path d="M120.43 38.4001C120.43 36.6201 119.98 35.2101 119.07 34.1701C118.16 33.1301 116.95 32.6101 115.42 32.6101C113.89 32.6101 112.72 33.1201 111.77 34.1401C110.81 35.1601 110.34 36.4601 110.34 38.0301C110.34 39.6001 110.81 40.9101 111.76 41.8801C112.71 42.8501 113.96 43.3301 115.52 43.3301C116.69 43.3301 117.69 43.0301 118.54 42.4301C119.39 41.8301 119.96 40.9801 120.28 39.9001H117.61C117.22 40.8801 116.53 41.3701 115.55 41.3701C114.8 41.3701 114.22 41.1401 113.81 40.6801C113.4 40.2201 113.18 39.5501 113.17 38.6801H120.44V38.4001H120.43ZM113.16 36.9101C113.24 36.2001 113.48 35.6501 113.89 35.2401C114.3 34.8301 114.81 34.6301 115.42 34.6301C116.07 34.6301 116.59 34.8401 116.95 35.2701C117.31 35.7001 117.53 36.2401 117.6 36.9101H113.16Z" fill="#92193B"/>
<path d="M71.63 32.9001V34.2601C71.25 33.6801 70.83 33.2701 70.36 33.0101C69.89 32.7501 69.31 32.6301 68.6 32.6301C68.24 32.6301 67.9 32.6701 67.58 32.7301L67.45 33.0901L66.79 34.8901L64.74 40.4701C64.9 40.8001 65.09 41.1101 65.33 41.3901C66.11 42.2901 67.16 42.7501 68.48 42.7501C69.8 42.7501 70.82 42.2301 71.58 41.1801L71.56 42.3201C71.55 43.2201 71.39 43.8901 71.09 44.3101C70.79 44.7401 70.2 44.9501 69.32 44.9501C68.72 44.9501 68.25 44.8501 67.93 44.6501C67.6 44.4501 67.39 44.1201 67.28 43.6601H64.51C64.78 45.7701 66.37 46.8201 69.26 46.8201C70.94 46.8201 72.19 46.4301 73.01 45.6501C73.83 44.8701 74.25 43.6501 74.25 41.9901V32.9101H71.62L71.63 32.9001ZM70.98 39.8601C70.56 40.4001 69.99 40.6701 69.27 40.6701C68.55 40.6701 67.98 40.4001 67.55 39.8701C67.12 39.3401 66.91 38.6301 66.91 37.7401C66.91 36.8501 67.12 36.0901 67.53 35.5701C67.94 35.0501 68.51 34.7901 69.25 34.7901C69.99 34.7901 70.56 35.0501 70.98 35.5601C71.4 36.0701 71.61 36.7801 71.61 37.6801C71.61 38.5801 71.4 39.3201 70.98 39.8601Z" fill="#92193B"/>
<path d="M77.31 0.370117L55.36 20.2401L70.28 21.1101L70.32 21.1501L77.31 0.380127V0.370117Z" fill="#92193B"/>
<path d="M77.3101 0.380127L70.3201 21.1501L81.9001 30.5001L77.3101 0.380127Z" fill="#BA2042"/>
</svg>
