<svg width="807" height="673" viewBox="0 0 807 673" fill="none" xmlns="http://www.w3.org/2000/svg">
<path d="M175.763 357.197C175.763 398.644 183.927 439.686 199.788 477.979C215.65 516.271 238.898 551.065 268.206 580.373C297.514 609.68 332.307 632.929 370.6 648.79C408.892 664.651 449.934 672.815 491.382 672.815L491.382 454.066C478.661 454.066 466.064 451.56 454.311 446.692C442.559 441.824 431.88 434.689 422.885 425.694C413.89 416.698 406.754 406.02 401.886 394.267C397.018 382.514 394.512 369.918 394.512 357.197H175.763Z" fill="#1E5DBC"/>
<path d="M175.763 585.031C205.976 585.031 234.951 573.029 256.315 551.665C277.678 530.302 289.68 501.326 289.68 471.114C289.68 440.901 277.678 411.926 256.315 390.562C234.951 369.199 205.976 357.197 175.763 357.197L175.763 471.114V585.031Z" fill="#BA2042"/>
<path d="M349.637 41.5784C308.189 41.5784 267.148 49.7421 228.855 65.6034C190.563 81.4647 155.769 104.713 126.461 134.021C97.1534 163.329 73.9051 198.122 58.0438 236.415C42.1825 274.707 34.0188 315.749 34.0188 357.197L175.028 357.197C175.028 334.267 179.545 311.561 188.32 290.377C197.095 269.192 209.956 249.944 226.17 233.73C242.384 217.516 261.633 204.654 282.817 195.879C304.002 187.104 326.707 182.588 349.637 182.588V41.5784Z" fill="#92193B"/>
<path d="M0 227.834C30.2126 227.834 59.1879 215.832 80.5514 194.468C101.915 173.105 113.917 144.13 113.917 113.917C113.917 83.7043 101.915 54.7291 80.5515 33.3655C59.1879 12.0019 30.2127 5.88262e-06 2.66075e-05 0L0 113.917L0 227.834Z" fill="#231F20"/>
</svg>
